<svg width="48" height="39" viewBox="0 0 48 39" fill="none" xmlns="http://www.w3.org/2000/svg">
<path fill-rule="evenodd" clip-rule="evenodd" d="M22.5124 13.2506V38.7257H34.6568C36.2761 38.7257 37.8458 38.5439 39.3659 38.1804C40.8861 37.7839 42.2409 37.1725 43.4306 36.3464C44.6533 35.4872 45.6117 34.3801 46.3056 33.0252C47.0326 31.6373 47.3961 29.9519 47.3961 27.9692C47.3961 25.8212 46.7187 23.9871 45.3638 22.467C44.3129 21.2623 42.9637 20.2762 41.3163 19.5089C42.3784 18.8484 43.2649 18.0334 43.9759 17.0639C45.0994 15.5438 45.6612 13.6602 45.6612 11.413C45.6612 8.3728 44.5377 6.09261 42.2905 4.57249C40.9081 3.617 39.2318 2.95542 37.2616 2.58773L22.5124 13.2506ZM37.1849 15.8743C36.524 16.7335 35.483 17.1631 34.062 17.1631H29.6999V9.18243H33.5663C34.9873 9.18243 36.1109 9.49637 36.937 10.1242C37.7962 10.7521 38.2258 11.6939 38.2258 12.9497C38.2258 14.0402 37.8788 15.0151 37.1849 15.8743ZM37.1849 31.6373C36.3257 31.9017 35.3673 32.0339 34.3099 32.0339H29.6999V24.1028H33.8142C34.8386 24.1028 35.8135 24.2184 36.7388 24.4498C37.6971 24.648 38.4737 25.0281 39.0685 25.5898C39.6633 26.1186 39.9608 26.9117 39.9608 27.9692C39.9608 28.8945 39.7129 29.671 39.2172 30.2989C38.7215 30.8938 38.0441 31.3399 37.1849 31.6373Z" fill="#2B2B2B"/>
<path fill-rule="evenodd" clip-rule="evenodd" d="M0 4.94793V38.7257H6.93969V31.1617L8.89093 29.6939L14.1768 38.7257H22.2566L13.7824 26.0144L21.4635 20.2364L17.2501 16.5187L6.93969 24.0953V0L0 4.94793Z" fill="#2B2B2B"/>
</svg>
